<svg width="616" height="107" viewBox="0 0 616 107" fill="none" xmlns="http://www.w3.org/2000/svg">
<path d="M609.628 33.158C610.552 33.158 611.387 33.3727 612.134 33.802C612.89 34.2313 613.483 34.824 613.912 35.58C614.341 36.3267 614.556 37.1573 614.556 38.072C614.556 38.9867 614.337 39.8267 613.898 40.592C613.459 41.348 612.862 41.9453 612.106 42.384C611.35 42.8227 610.515 43.042 609.6 43.042C608.685 43.042 607.85 42.8227 607.094 42.384C606.347 41.9453 605.755 41.348 605.316 40.592C604.887 39.836 604.672 39.0053 604.672 38.1C604.672 37.1947 604.887 36.364 605.316 35.608C605.755 34.852 606.352 34.2547 607.108 33.816C607.864 33.3773 608.704 33.158 609.628 33.158ZM609.6 42.412C610.403 42.412 611.131 42.2207 611.784 41.838C612.437 41.4553 612.951 40.9327 613.324 40.27C613.707 39.6073 613.898 38.8747 613.898 38.072C613.898 37.2693 613.711 36.5413 613.338 35.888C612.974 35.2347 612.465 34.7213 611.812 34.348C611.168 33.9747 610.44 33.788 609.628 33.788C608.825 33.788 608.093 33.9793 607.43 34.362C606.777 34.7447 606.263 35.2673 605.89 35.93C605.517 36.5833 605.33 37.3067 605.33 38.1C605.33 38.8933 605.517 39.6213 605.89 40.284C606.263 40.9373 606.777 41.4553 607.43 41.838C608.083 42.2207 608.807 42.412 609.6 42.412ZM612.134 37.204C612.134 37.624 612.031 37.9833 611.826 38.282C611.621 38.5807 611.331 38.7953 610.958 38.926L612.232 40.9H611.266L610.104 39.108H609.866H608.578V40.9H607.626V35.3H609.866C610.566 35.3 611.117 35.4727 611.518 35.818C611.929 36.1633 612.134 36.6253 612.134 37.204ZM609.796 38.324C610.244 38.324 610.589 38.226 610.832 38.03C611.084 37.834 611.21 37.5587 611.21 37.204C611.21 36.8493 611.084 36.5787 610.832 36.392C610.589 36.196 610.244 36.098 609.796 36.098H608.564V38.324H609.796Z" fill="#272727"/>
<path d="M73.2342 92.6132V44H52L58.527 55.0445V104.875H112.221V92.6132H73.2342Z" fill="#272727"/>
<path d="M122.839 55.0445V104.875H137.546V44H116.312L122.839 55.0445Z" fill="#272727"/>
<path d="M151.47 55.0445V104.875H166.178V68.698L186.976 104.875H192.459L213.345 68.698V104.875H228.052V44H213.345L189.761 85.0473L166.178 44H144.943L151.47 55.0445Z" fill="#272727"/>
<path d="M308.81 74.4377C308.81 52.6966 290.1 42 274.174 42C274 42 273.826 42.0868 273.565 42.0868L244.064 42L249.459 51.2181C243.454 56.5228 239.451 64.2628 239.451 74.4377C239.451 96.1788 258.162 106.875 274.174 106.875C290.1 106.875 308.81 96.1788 308.81 74.4377ZM293.842 74.4377C293.842 86.8735 283.225 92.874 274.174 92.874C265.037 92.874 254.42 86.8735 254.42 74.4377C254.42 62.0017 265.037 55.9141 274.174 55.9141C283.225 55.9141 293.842 62.0017 293.842 74.4377Z" fill="#272727"/>
<path d="M321.169 55.0445V104.875H335.876V62.4366L373.296 104.875H388.004V44H373.296V86.3518L335.876 44H314.642L321.169 55.0445Z" fill="#272727"/>
<path d="M423.161 51.0442L397.488 104.875H413.066L417.33 96.0047H451.444L455.708 104.875H471.286L441.871 43.1304H418.549L423.161 51.0442V51.0442ZM434.387 60.5233L445.526 83.7427H423.248L434.387 60.5233V60.5233Z" fill="#272727"/>
<path d="M463.541 44L470.677 56.0881H492.52V104.875H507.227V56.0881H533.857V44H463.541Z" fill="#272727"/>
<path d="M555.876 51.0442L530.203 104.875H545.781L550.045 96.0047H584.159L588.423 104.875H604L574.586 43.1304H551.263L555.876 51.0442V51.0442ZM567.102 60.5233L578.241 83.7427H555.963L567.102 60.5233V60.5233Z" fill="#272727"/>
<path d="M0 18.6355H8.1973C8.42205 19.5781 8.82874 20.2548 9.42385 20.6658C10.0129 21.0765 10.8995 21.282 12.0714 21.282C13.0489 21.282 13.8262 21.1129 14.3847 20.7805C14.9495 20.4421 15.2289 19.9828 15.2289 19.3908C15.2289 18.448 14.0507 17.6867 11.6948 17.0945C11.2212 16.9798 10.8569 16.889 10.608 16.8287C8.67712 16.3332 7.14086 15.8801 5.99323 15.4752C4.85162 15.0702 4.01971 14.6835 3.49751 14.3331C2.48969 13.614 1.73069 12.7499 1.22656 11.7468C0.722643 10.7438 0.473813 9.59578 0.473813 8.30861C0.473813 5.7225 1.45131 3.69222 3.40654 2.21178C5.36177 0.737333 8.0517 0 11.4763 0C14.8463 0 17.4936 0.707154 19.4245 2.12103C21.3555 3.53512 22.4485 5.55918 22.6975 8.19389H14.7187C14.5912 7.42637 14.2452 6.85235 13.6987 6.4778C13.1461 6.09704 12.3568 5.90977 11.3367 5.90977C10.4379 5.90977 9.77012 6.05466 9.32686 6.35089C8.88961 6.64688 8.67088 7.09399 8.67088 7.69841C8.67088 8.55645 9.81852 9.28158 12.1198 9.85561C12.3263 9.91596 12.4781 9.95834 12.5813 9.98253C12.9153 10.0611 13.4193 10.1878 14.0993 10.3511C17.1476 11.1184 19.1391 11.8133 20.0803 12.4417C21.2402 13.2092 22.0901 14.0793 22.6246 15.0582C23.1588 16.0372 23.426 17.1972 23.426 18.5266C23.426 21.4089 22.4121 23.6204 20.39 25.1615C18.3681 26.7082 15.4717 27.4817 11.6948 27.4817C8.21558 27.4817 5.45877 26.7082 3.42483 25.1615C1.39067 23.6204 0.249058 21.4453 0 18.6355V18.6355Z" fill="#272727"/>
<path d="M26.8428 26.7567V7.50502H33.941V11.0097C34.451 9.62006 35.1857 8.60492 36.1391 7.96433C37.0923 7.31774 38.3675 6.99756 39.9583 6.99756H40.6507V14.6292C40.3653 14.605 40.0919 14.581 39.8308 14.5628C39.5697 14.5446 39.3209 14.5387 39.0841 14.5387C37.5295 14.5387 36.3879 14.889 35.6592 15.584C34.9308 16.2789 34.5665 17.3726 34.5665 18.859V26.7567H26.8428V26.7567Z" fill="#272727"/>
<path d="M40.1484 26.7564V18.9253H47.8721V26.7564H40.1484Z" fill="#272727"/>
<path d="M52.5049 26.7566V0.688965H72.3241V7.25109H60.9207V11.2755H69.9923V17.584H60.9207V26.7566H52.5049Z" fill="#272727"/>
<path d="M74.5234 26.7567V7.50502H81.6217V11.0097C82.1316 9.62006 82.8663 8.60492 83.8198 7.96433C84.773 7.31774 86.0481 6.99756 87.639 6.99756H88.3313V14.6292C88.0459 14.605 87.7726 14.581 87.5115 14.5628C87.2504 14.5446 87.0015 14.5387 86.7647 14.5387C85.2102 14.5387 84.0686 14.889 83.3399 15.584C82.6115 16.2789 82.2471 17.3726 82.2471 18.859V26.7567H74.5234V26.7567Z" fill="#272727"/>
<path d="M97.8036 14.9739H104.653C104.568 13.7775 104.24 12.8771 103.657 12.2789C103.074 11.6806 102.242 11.3846 101.149 11.3846C100.141 11.3846 99.3398 11.6988 98.7568 12.3332C98.1679 12.9676 97.8522 13.8498 97.8036 14.9739V14.9739ZM104.252 21.0647H111.611C111.077 23.1616 109.905 24.7507 108.102 25.8262C106.292 26.9079 103.906 27.4458 100.943 27.4458C97.6274 27.4458 94.9921 26.5272 93.0431 24.6902C91.0939 22.8594 90.1162 20.388 90.1162 17.282C90.1162 14.0493 91.1122 11.4934 93.1038 9.62018C95.0954 7.75299 97.8036 6.81641 101.228 6.81641C104.665 6.81641 107.355 7.83754 109.304 9.87381C111.253 11.9103 112.231 14.7383 112.231 18.3577V18.8168L97.8036 18.835C97.8399 20.0556 98.1679 20.9982 98.7811 21.6629C99.4005 22.3277 100.263 22.6599 101.368 22.6599C102.115 22.6599 102.74 22.521 103.238 22.2492C103.736 21.9712 104.076 21.5784 104.252 21.0647V21.0647Z" fill="#272727"/>
<path d="M114.452 20.7022H121.921C121.921 21.5178 122.133 22.1283 122.552 22.527C122.971 22.9319 123.603 23.1314 124.447 23.1314C125.248 23.1314 125.868 22.9983 126.299 22.7265C126.73 22.4544 126.949 22.0557 126.949 21.536C126.949 20.672 125.995 20.0374 124.082 19.6205C123.919 19.5843 123.791 19.5541 123.694 19.5299C120.081 18.7624 117.719 17.9408 116.614 17.0526C115.515 16.1703 114.962 14.8712 114.962 13.1551C114.962 11.0884 115.77 9.51745 117.391 8.43575C119.006 7.35404 121.374 6.81641 124.477 6.81641C127.361 6.81641 129.596 7.32386 131.175 8.339C132.759 9.35414 133.67 10.865 133.907 12.8711H126.985C126.924 12.297 126.675 11.8377 126.232 11.4994C125.783 11.155 125.224 10.9857 124.55 10.9857C123.87 10.9857 123.354 11.1006 123.002 11.3301C122.643 11.5597 122.467 11.8921 122.467 12.3272C122.467 13.0945 123.342 13.6566 125.084 14.0251C125.546 14.1159 125.892 14.1882 126.129 14.2366C129.638 15.0402 131.921 15.8923 132.978 16.7927C134.035 17.6989 134.563 19.0223 134.563 20.7687C134.563 22.9803 133.701 24.642 131.976 25.7659C130.252 26.8838 127.702 27.4458 124.319 27.4458C121.192 27.4458 118.806 26.8838 117.166 25.7659C115.521 24.642 114.616 22.9561 114.452 20.7022V20.7022Z" fill="#272727"/>
<path d="M150.586 19.2519H158.273C158.109 21.7899 157.089 23.79 155.225 25.2522C153.355 26.7145 150.878 27.4458 147.781 27.4458C144.356 27.4458 141.648 26.5212 139.657 24.6662C137.665 22.811 136.669 20.2912 136.669 17.1069C136.669 13.9164 137.653 11.4026 139.62 9.57181C141.587 7.7348 144.283 6.81641 147.708 6.81641C150.817 6.81641 153.319 7.54154 155.213 8.98559C157.108 10.4358 158.103 12.3816 158.201 14.8288H150.513C150.428 13.9164 150.155 13.2396 149.694 12.8045C149.232 12.3634 148.558 12.1459 147.666 12.1459C146.554 12.1459 145.735 12.5447 145.213 13.3424C144.69 14.14 144.429 15.3908 144.429 17.1069C144.429 18.841 144.684 20.11 145.188 20.9136C145.692 21.7173 146.494 22.116 147.599 22.116C148.485 22.116 149.184 21.8744 149.688 21.3911C150.191 20.9076 150.489 20.1947 150.586 19.2519V19.2519Z" fill="#272727"/>
<path d="M168.177 17.1069C168.177 18.8893 168.426 20.1705 168.918 20.95C169.41 21.7295 170.217 22.116 171.347 22.116C172.476 22.116 173.29 21.7233 173.794 20.9378C174.298 20.1523 174.553 18.8774 174.553 17.1069C174.553 15.3425 174.298 14.0795 173.794 13.306C173.29 12.5327 172.476 12.1459 171.347 12.1459C170.217 12.1459 169.41 12.5265 168.918 13.294C168.426 14.0615 168.177 15.3365 168.177 17.1069V17.1069ZM160.417 17.1069C160.417 13.9164 161.389 11.4026 163.332 9.57181C165.281 7.7348 167.953 6.81641 171.359 6.81641C174.759 6.81641 177.431 7.7348 179.368 9.57181C181.305 11.4026 182.276 13.9164 182.276 17.1069C182.276 20.3154 181.305 22.8412 179.362 24.6842C177.413 26.5272 174.747 27.4458 171.359 27.4458C167.965 27.4458 165.293 26.5272 163.344 24.6842C161.395 22.8412 160.417 20.3154 160.417 17.1069V17.1069Z" fill="#272727"/>
</svg>
